<svg xmlns="http://www.w3.org/2000/svg" xmlns:xlink="http://www.w3.org/1999/xlink" width="235" zoomAndPan="magnify" viewBox="0 0 176.25 176.250001" height="235" preserveAspectRatio="xMidYMid meet" version="1.0"><defs><clipPath id="a66048dee0"><path d="M 0 0 L 175.503906 0 L 175.503906 175.503906 L 0 175.503906 Z M 0 0 " clip-rule="nonzero"/></clipPath><clipPath id="f2497a6d12"><path d="M 0 0 L 174.839844 0 L 174.839844 174.839844 L 0 174.839844 Z M 0 0 " clip-rule="nonzero"/></clipPath><clipPath id="9224bd6cce"><path d="M 15.683594 0 L 159.15625 0 C 163.316406 0 167.304688 1.652344 170.246094 4.59375 C 173.1875 7.535156 174.839844 11.523438 174.839844 15.683594 L 174.839844 159.15625 C 174.839844 163.316406 173.1875 167.304688 170.246094 170.246094 C 167.304688 173.1875 163.316406 174.839844 159.15625 174.839844 L 15.683594 174.839844 C 11.523438 174.839844 7.535156 173.1875 4.59375 170.246094 C 1.652344 167.304688 0 163.316406 0 159.15625 L 0 15.683594 C 0 11.523438 1.652344 7.535156 4.59375 4.59375 C 7.535156 1.652344 11.523438 0 15.683594 0 Z M 15.683594 0 " clip-rule="nonzero"/></clipPath><clipPath id="4869d593e3"><path d="M 0 0 L 174.839844 0 L 174.839844 174.839844 L 0 174.839844 Z M 0 0 " clip-rule="nonzero"/></clipPath><clipPath id="8c18cbcda3"><path d="M 15.683594 0 L 159.15625 0 C 163.316406 0 167.304688 1.652344 170.246094 4.59375 C 173.1875 7.535156 174.839844 11.523438 174.839844 15.683594 L 174.839844 159.15625 C 174.839844 163.316406 173.1875 167.304688 170.246094 170.246094 C 167.304688 173.1875 163.316406 174.839844 159.15625 174.839844 L 15.683594 174.839844 C 11.523438 174.839844 7.535156 173.1875 4.59375 170.246094 C 1.652344 167.304688 0 163.316406 0 159.15625 L 0 15.683594 C 0 11.523438 1.652344 7.535156 4.59375 4.59375 C 7.535156 1.652344 11.523438 0 15.683594 0 Z M 15.683594 0 " clip-rule="nonzero"/></clipPath><clipPath id="99becc0837"><rect x="0" width="175" y="0" height="175"/></clipPath><clipPath id="69038c87bb"><path d="M 29.929688 24.328125 L 144.9375 24.328125 L 144.9375 115 L 29.929688 115 Z M 29.929688 24.328125 " clip-rule="nonzero"/></clipPath><clipPath id="c2a3ca6107"><path d="M 29.929688 65 L 114 65 L 114 150.542969 L 29.929688 150.542969 Z M 29.929688 65 " clip-rule="nonzero"/></clipPath></defs><g clip-path="url(#a66048dee0)"><path fill="#ffffff" d="M 0 0 L 175.503906 0 L 175.503906 175.503906 L 0 175.503906 Z M 0 0 " fill-opacity="1" fill-rule="nonzero"/></g><g clip-path="url(#f2497a6d12)"><g clip-path="url(#9224bd6cce)"><g transform="matrix(1, 0, 0, 1, 0, -0.000000000000016635)"><g clip-path="url(#99becc0837)"><g clip-path="url(#4869d593e3)"><g clip-path="url(#8c18cbcda3)"><path fill="#ffffff" d="M 0 0 L 174.839844 0 L 174.839844 174.839844 L 0 174.839844 Z M 0 0 " fill-opacity="1" fill-rule="nonzero"/></g></g></g></g></g></g><g clip-path="url(#69038c87bb)"><path fill="#f90093" d="M 40.695312 27.296875 C 37.316406 29.234375 34.644531 31.933594 32.785156 35.132812 C 30.921875 38.355469 29.929688 42.023438 29.929688 45.925781 L 29.929688 83.238281 C 29.929688 87.117188 30.921875 90.785156 32.785156 94.007812 C 34.644531 97.203125 37.316406 99.902344 40.695312 101.867188 L 60.324219 113.214844 C 63.257812 114.917969 66.976562 113.921875 68.679688 110.988281 C 70.382812 108.050781 69.386719 104.332031 66.453125 102.628906 L 46.828125 91.28125 L 46.800781 91.28125 C 45.308594 90.417969 44.128906 89.265625 43.371094 87.929688 C 42.609375 86.59375 42.191406 84.992188 42.191406 83.238281 L 42.191406 45.925781 C 42.191406 44.171875 42.609375 42.574219 43.371094 41.261719 L 43.371094 41.234375 C 44.128906 39.898438 45.308594 38.746094 46.828125 37.882812 C 48.320312 37.015625 49.894531 36.597656 51.464844 36.597656 C 53.039062 36.597656 54.636719 37.015625 56.105469 37.882812 L 92.027344 58.632812 L 92.054688 58.632812 L 128.003906 79.359375 C 129.496094 80.226562 130.648438 81.378906 131.433594 82.742188 C 132.195312 84.078125 132.613281 85.648438 132.613281 87.429688 C 132.613281 89.082031 132.246094 90.601562 131.59375 91.859375 C 131.539062 91.9375 131.488281 92.015625 131.460938 92.09375 C 130.675781 93.457031 129.496094 94.636719 128.027344 95.476562 C 125.09375 97.152344 124.097656 100.898438 125.777344 103.808594 C 127.453125 106.742188 131.199219 107.738281 134.109375 106.058594 C 137.515625 104.09375 140.214844 101.394531 142.046875 98.226562 C 142.125 98.09375 142.203125 97.964844 142.257812 97.808594 C 143.988281 94.6875 144.902344 91.152344 144.902344 87.40625 C 144.902344 83.527344 143.90625 79.859375 142.046875 76.636719 L 142.046875 76.609375 C 140.214844 73.4375 137.515625 70.738281 134.109375 68.773438 L 98.210938 48.046875 L 62.234375 27.296875 C 58.828125 25.332031 55.160156 24.335938 51.464844 24.335938 C 47.796875 24.335938 44.128906 25.332031 40.695312 27.296875 Z M 40.695312 27.296875 " fill-opacity="1" fill-rule="evenodd"/></g><g clip-path="url(#c2a3ca6107)"><path fill="#79fe0c" d="M 29.929688 119.816406 L 29.929688 128.910156 C 29.929688 132.785156 30.921875 136.457031 32.785156 139.679688 C 34.644531 142.902344 37.316406 145.601562 40.695312 147.539062 C 40.828125 147.617188 40.960938 147.695312 41.089844 147.75 C 44.390625 149.582031 47.929688 150.5 51.464844 150.5 C 55.132812 150.5 58.804688 149.503906 62.210938 147.539062 L 102.507812 124.296875 C 105.914062 122.332031 108.613281 119.632812 110.449219 116.460938 L 110.449219 116.4375 C 112.308594 113.214844 113.304688 109.546875 113.304688 105.667969 C 113.304688 101.789062 112.308594 98.121094 110.449219 94.898438 C 108.585938 91.703125 105.914062 89.003906 102.507812 87.039062 L 67.003906 66.546875 C 66.035156 65.996094 65.011719 65.734375 63.964844 65.734375 C 61.84375 65.734375 59.796875 66.835938 58.671875 68.800781 C 56.996094 71.734375 57.992188 75.457031 60.925781 77.132812 L 96.429688 97.625 C 97.921875 98.488281 99.101562 99.640625 99.863281 100.976562 C 100.621094 102.3125 101.039062 103.910156 101.039062 105.667969 C 101.039062 107.421875 100.621094 109.019531 99.863281 110.332031 C 99.074219 111.695312 97.898438 112.875 96.429688 113.710938 L 56.128906 136.953125 C 54.636719 137.816406 53.066406 138.238281 51.464844 138.238281 C 49.972656 138.238281 48.480469 137.871094 47.0625 137.109375 C 46.984375 137.058594 46.90625 137.003906 46.828125 136.953125 C 45.308594 136.0625 44.128906 134.910156 43.371094 133.597656 C 42.609375 132.261719 42.191406 130.664062 42.191406 128.910156 L 42.191406 119.816406 C 42.191406 116.4375 39.4375 113.683594 36.058594 113.683594 C 32.679688 113.683594 29.929688 116.410156 29.929688 119.816406 Z M 29.929688 119.816406 " fill-opacity="1" fill-rule="evenodd"/></g></svg>